<svg width="32" height="32" viewBox="0 0 32 32" fill="none" xmlns="http://www.w3.org/2000/svg">
<g clip-path="url(#clip0_723_1121)">
<path d="M28.1071 9.78833H3.89393C2.96312 9.78833 2.2085 10.5429 2.2085 11.4738V22.4965H29.7925V11.4738C29.7925 10.543 29.0379 9.78833 28.1071 9.78833Z" fill="#FF9A00"/>
<path d="M6.46971 0C5.28209 0 4.31934 0.96275 4.31934 2.15037V29.8496C4.31934 31.0373 5.28209 32 6.46971 32H25.5282C26.7158 32 27.6786 31.0373 27.6786 29.8496V6.63088C27.6786 6.19881 27.507 5.7845 27.2015 5.47894L22.1996 0.477062C21.8941 0.171625 21.4797 0 21.0476 0L6.46971 0Z" fill="#F6F6F6"/>
<path d="M27.2007 5.47798L23.8852 2.16248L23.8734 7.72404C23.8726 8.07316 24.1554 8.3566 24.5045 8.3566C24.8532 8.3566 25.1357 8.63923 25.1357 8.98779V29.8487C25.1357 31.0363 24.173 31.999 22.9854 31.999H25.5274C26.715 31.999 27.6777 31.0363 27.6777 29.8487V8.81029V6.62985C27.6779 6.19779 27.5062 5.78348 27.2007 5.47798Z" fill="#EAEAEA"/>
<path d="M27.2017 5.47922L22.1998 0.477348C22.0605 0.338098 21.8985 0.227035 21.7227 0.146973V3.80597C21.7227 4.9936 22.6854 5.95635 23.873 5.95635H27.532C27.452 5.78047 27.341 5.61847 27.2017 5.47922Z" fill="#A8D0D5"/>
<path d="M11.8726 15.9723L11.4281 14.9663C11.1584 14.3558 10.5539 13.962 9.8865 13.962H3.89393C2.96312 13.962 2.2085 14.7166 2.2085 15.6475V30.3177C2.2085 31.2485 2.96306 32.0032 3.89393 32.0032H28.1071C29.0379 32.0032 29.7925 31.2486 29.7925 30.3177V18.662C29.7925 17.7312 29.0379 16.9766 28.1071 16.9766H13.4143C12.7469 16.9766 12.1424 16.5828 11.8726 15.9723Z" fill="#FFB541"/>
<path d="M8.86383 14.9663L9.30833 15.9723C9.57808 16.5827 10.1826 16.9765 10.85 16.9765H13.4143C12.747 16.9765 12.1425 16.5827 11.8728 15.9723L11.4283 14.9663C11.1585 14.3558 10.554 13.962 9.88664 13.962H7.32227C7.98964 13.9621 8.59408 14.3558 8.86383 14.9663Z" fill="#FFA812"/>
<path d="M28.107 16.9763H25.5427C26.4734 16.9764 27.2279 17.7309 27.2279 18.6618V30.3175C27.2279 31.2483 26.4734 32.0029 25.5425 32.0029H28.1069C29.0377 32.0029 29.7924 31.2484 29.7924 30.3175V18.6617C29.7924 17.7309 29.0379 16.9763 28.107 16.9763Z" fill="#FFA812"/>
<path d="M12.0848 3.54571H7.3082C7.04145 3.54571 6.8252 3.32946 6.8252 3.06271C6.8252 2.79596 7.04145 2.57971 7.3082 2.57971H12.0848C12.3515 2.57971 12.5678 2.79596 12.5678 3.06271C12.5678 3.32946 12.3516 3.54571 12.0848 3.54571Z" fill="#3693BD"/>
<path d="M12.0848 6.45001H7.3082C7.04145 6.45001 6.8252 6.23376 6.8252 5.96701C6.8252 5.70026 7.04145 5.48401 7.3082 5.48401H12.0848C12.3515 5.48401 12.5678 5.70026 12.5678 5.96701C12.5678 6.23376 12.3516 6.45001 12.0848 6.45001Z" fill="#3693BD"/>
</g>
<defs>
<clipPath id="clip0_723_1121">
<rect width="32" height="32" fill="white"/>
</clipPath>
</defs>
</svg>
