<svg width="32" height="32" viewBox="0 0 32 32" fill="none" xmlns="http://www.w3.org/2000/svg">
<path d="M31.9999 6.22765V25.7697C31.9996 26.2406 31.7004 26.6594 31.2551 26.8125L16.3586 31.949C16.243 31.9883 16.122 32.0088 15.9999 32.0097L14.8965 10.0014C15.0266 10 15.1555 9.97575 15.2772 9.92971L31.7958 5.58765C31.9278 5.77502 31.9991 5.99843 31.9999 6.22765Z" fill="#FFD4AE"/>
<path d="M16 10.9614V32.0097C15.878 32.0088 15.7569 31.9883 15.6414 31.949L0.744828 26.8125C0.299482 26.6594 0.000336276 26.2406 0 25.7697V6.22765C0.000851498 5.99843 0.0721133 5.77502 0.204138 5.58765L16 8.27454C16.1214 8.31813 15.8676 10.9614 16 10.9614Z" fill="#DAAE87"/>
<path d="M31.7958 5.58761L16.3807 10.8897C16.1358 10.9851 15.8641 10.9851 15.6193 10.8897L0.204102 5.58761C0.338111 5.40044 0.527095 5.25967 0.744791 5.18485L15.6413 0.0482994C15.8742 -0.0289579 16.1257 -0.0289579 16.3586 0.0482994L31.2551 5.18485C31.4728 5.25967 31.6618 5.40044 31.7958 5.58761Z" fill="#D9AB85"/>
<path d="M4.41357 7.17107L20.7612 1.56555L27.0343 3.72831L11.0343 9.37797L4.41357 7.17107Z" fill="#ECCDB0"/>
<path d="M11.1281 9.34486L11.0343 9.37796V16.7159C11.0343 16.9469 10.8904 17.1535 10.6737 17.2335C10.457 17.3135 10.2134 17.2501 10.0632 17.0745L7.72393 14.3435L5.21359 15.6014C5.04194 15.6879 4.83765 15.6788 4.67434 15.5775C4.51103 15.4761 4.41225 15.2971 4.41359 15.1049V7.17107L4.61221 7.10486L11.1281 9.34486Z" fill="#F6DDC6"/>
</svg>
